<svg width="35" height="36" viewBox="0 0 35 36" fill="none" xmlns="http://www.w3.org/2000/svg">
<path d="M17.3451 33C25.2677 33 31.6902 31.4642 31.6902 29.5696C31.6902 27.6751 25.2677 26.1393 17.3451 26.1393C9.42253 26.1393 3 27.6751 3 29.5696C3 31.4642 9.42253 33 17.3451 33Z" stroke="#325B8E" stroke-width="5" stroke-linecap="round" stroke-linejoin="round"/>
<path d="M31.4408 28.946L30.0686 27.025C26.6869 23.0293 24.8307 17.9644 24.8296 12.7297V12.7297C24.8296 10.7447 24.041 8.84106 22.6374 7.43746C21.2338 6.03386 19.3301 5.24533 17.3451 5.24533V5.24533C15.3602 5.24533 13.4565 6.03386 12.0529 7.43746C10.6493 8.84106 9.86074 10.7447 9.86074 12.7297V12.7297C9.85963 17.9644 8.00339 23.0293 4.62165 27.025L3.24951 28.946" stroke="#325B8E" stroke-width="5" stroke-linecap="round" stroke-linejoin="round"/>
<path d="M17.3452 26.2017C17.3801 26.6931 17.3177 27.1866 17.1618 27.6539C17.0059 28.1213 16.7595 28.5533 16.4366 28.9254C16.1137 29.2975 15.7207 29.6024 15.28 29.8226C14.8393 30.0429 14.3595 30.1741 13.8681 30.2089C12.8756 30.2792 11.8959 29.9524 11.1443 29.3003C10.7722 28.9774 10.4674 28.5844 10.2471 28.1437C10.0269 27.703 9.89565 27.2232 9.86084 26.7318" stroke="#325B8E" stroke-width="5" stroke-linecap="round" stroke-linejoin="round"/>
<path d="M15.3491 4.99584C15.3491 4.46651 15.5594 3.95886 15.9337 3.58457C16.308 3.21028 16.8156 3 17.345 3C17.8743 3 18.3819 3.21028 18.7562 3.58457C19.1305 3.95886 19.3408 4.46651 19.3408 4.99584" stroke="#325B8E" stroke-width="5" stroke-linecap="round" stroke-linejoin="round"/>
</svg>
