<svg width="31" height="33" viewBox="0 0 31 33" fill="none" xmlns="http://www.w3.org/2000/svg">
<path d="M15.3451 32C23.2677 32 29.6902 30.4642 29.6902 28.5696C29.6902 26.6751 23.2677 25.1393 15.3451 25.1393C7.42253 25.1393 1 26.6751 1 28.5696C1 30.4642 7.42253 32 15.3451 32Z" stroke="#325B8E" stroke-width="2" stroke-linecap="round" stroke-linejoin="round"/>
<path d="M29.4408 27.946L28.0686 26.025C24.6869 22.0293 22.8307 16.9644 22.8296 11.7297V11.7297C22.8296 9.74475 22.041 7.84106 20.6374 6.43746C19.2338 5.03386 17.3301 4.24533 15.3451 4.24533V4.24533C13.3602 4.24533 11.4565 5.03386 10.0529 6.43746C8.64927 7.84106 7.86074 9.74475 7.86074 11.7297V11.7297C7.85963 16.9644 6.00339 22.0293 2.62165 26.025L1.24951 27.946" stroke="#325B8E" stroke-width="2" stroke-linecap="round" stroke-linejoin="round"/>
<path d="M15.3452 25.2017C15.3801 25.6931 15.3177 26.1866 15.1618 26.6539C15.0059 27.1213 14.7595 27.5533 14.4366 27.9254C14.1137 28.2975 13.7207 28.6024 13.28 28.8226C12.8393 29.0429 12.3595 29.1741 11.8681 29.2089C10.8756 29.2792 9.89585 28.9524 9.14434 28.3003C8.77223 27.9774 8.46736 27.5844 8.24714 27.1437C8.02691 26.703 7.89565 26.2232 7.86084 25.7318" stroke="#325B8E" stroke-width="2" stroke-linecap="round" stroke-linejoin="round"/>
<path d="M13.3491 3.99584C13.3491 3.46651 13.5594 2.95886 13.9337 2.58457C14.308 2.21028 14.8156 2 15.345 2C15.8743 2 16.3819 2.21028 16.7562 2.58457C17.1305 2.95886 17.3408 3.46651 17.3408 3.99584" stroke="#325B8E" stroke-width="2" stroke-linecap="round" stroke-linejoin="round"/>
</svg>
