<svg width="114" height="114" viewBox="0 0 114 114" fill="none" xmlns="http://www.w3.org/2000/svg">
<g filter="url(#filter0_d)">
<circle cx="57" cy="53" r="42" fill="url(#paint0_linear)"/>
</g>
<path d="M49.7273 33H37V45.7273H49.7273V33ZM47.9091 43.9091H38.8182V34.8182H47.9091V43.9091Z" fill="white"/>
<path d="M63.3636 69.3636H61.5454V73H77V71.1818H63.3636V69.3636Z" fill="white"/>
<path d="M46.0909 36.6364H40.6364V42.0909H46.0909V36.6364Z" fill="white"/>
<path d="M37 73H49.7273V60.2727H37V73ZM38.8182 62.0909H47.9091V71.1818H38.8182V62.0909Z" fill="white"/>
<path d="M46.0909 63.9091H40.6364V69.3636H46.0909V63.9091Z" fill="white"/>
<path d="M64.2727 33V45.7273H77V33H64.2727ZM75.1818 43.9091H66.0909V34.8182H75.1818V43.9091Z" fill="white"/>
<path d="M73.3636 36.6364H67.9091V42.0909H73.3636V36.6364Z" fill="white"/>
<path d="M77 47.5455H73.3636V51.1818H77V47.5455Z" fill="white"/>
<path d="M40.6364 54.8182H37V58.4545H40.6364V54.8182Z" fill="white"/>
<path d="M56.0908 47.5455H48.8181V49.3636H57.909V45.7273V43.9091H59.7272V40.2727H57.909H56.0908H54.2727V36.6364H56.0908V38.4545H62.4545V33H60.6363V36.6364H57.909V33H56.9999H53.3636H52.4545V42.0909H56.0908V43.9091H52.4545V45.7273H56.0908V47.5455Z" fill="white"/>
<path d="M39.7273 53H43.3636H45.1818H46.0909V54.8182H42.4545V56.6364H46.0909V58.4546H53.3636V56.6364H47.9091V54.8182V51.1818H45.1818V48.4546H43.3636V51.1818H41.5455V47.5455H37V49.3637H39.7273V53Z" fill="white"/>
<path d="M57 69.3636V64.8182H53.3636V61.1818H51.5454V66.6364H55.1818V69.3636H51.5454V71.1818H55.1818V73H59.7272V71.1818H57V69.3636Z" fill="white"/>
<path d="M66.0909 51.1818H62.4545V46.6364H60.6364V53H69.7273V51.1818H67.9091V49.3637H70.6364V47.5455H67.9091H66.0909H64.2727V49.3637H66.0909V51.1818Z" fill="white"/>
<path d="M64.2727 67.5455H67V69.3636H70.6364V67.5455V65.7273V63H67V65.7273H64.2727V63H62.4545V65.7273H60.6364V58.4546H58.8182V56.6364H57V51.1818H50.6364V54.8182H52.4545V53H55.1818V56.6364V60.2727H58.8182V65.7273V67.5455H60.6364H62.4545H64.2727Z" fill="white"/>
<path d="M75.1819 55.7273H72.4546H70.6364H66.091V59.3636H64.2728V55.7273H62.4546V61.1818H67.9091V57.5455H70.6364V60.2727H72.4546V57.5455H75.1819V63H72.4546V68.4545H77V66.6364H74.2728V64.8182H77V57.5455V55.7273V53H75.1819V55.7273Z" fill="white"/>
<path d="M85.6387 54.3658H28.3612C27.6091 54.3658 27 53.7546 27 53C27 52.2454 27.6091 51.6342 28.3612 51.6342H85.6387C86.3908 51.6342 87 52.2454 87 53C87.0062 53.7546 86.397 54.3658 85.6387 54.3658ZM80.1876 36.5793C80.1876 31.0662 78.8636 29.7378 73.369 29.7378H67.9116V27H76.0914C79.8581 27 82.91 30.0621 82.91 33.8414V42.0487H80.1814V36.5793H80.1876ZM33.8186 36.5793V42.0549H31.0899V33.8414C31.0899 30.0621 34.1418 27 37.9085 27H46.0884V29.7378H40.631C35.2109 29.7378 33.8186 31.0662 33.8186 36.5793ZM33.8186 69.4207C33.8186 74.8527 35.2233 76.2622 40.6372 76.2622H46.0946V79H37.9085C34.1418 79 31.0899 75.9379 31.0899 72.1586V63.9451H33.8186V69.4207ZM80.1876 69.4207V63.9451H82.9162V72.1523C82.9162 75.9316 79.8644 78.9938 76.0977 78.9938H67.9116V76.2622H73.369C78.8636 76.2622 80.1876 74.8527 80.1876 69.4207Z" fill="white"/>
<defs>
<filter id="filter0_d" x="0" y="0" width="114" height="114" filterUnits="userSpaceOnUse" color-interpolation-filters="sRGB">
<feFlood flood-opacity="0" result="BackgroundImageFix"/>
<feColorMatrix in="SourceAlpha" type="matrix" values="0 0 0 0 0 0 0 0 0 0 0 0 0 0 0 0 0 0 127 0"/>
<feOffset dy="4"/>
<feGaussianBlur stdDeviation="7.5"/>
<feColorMatrix type="matrix" values="0 0 0 0 0 0 0 0 0 0 0 0 0 0 0 0 0 0 0.25 0"/>
<feBlend mode="normal" in2="BackgroundImageFix" result="effect1_dropShadow"/>
<feBlend mode="normal" in="SourceGraphic" in2="effect1_dropShadow" result="shape"/>
</filter>
<linearGradient id="paint0_linear" x1="57" y1="11" x2="57" y2="95" gradientUnits="userSpaceOnUse">
<stop stop-color="#325B8E"/>
<stop offset="1" stop-color="#00B2BC"/>
</linearGradient>
</defs>
</svg>
