<svg width="79" height="32" viewBox="0 0 79 32" fill="none" xmlns="http://www.w3.org/2000/svg">
<path d="M65.0147 7H65.2439C65.5167 7.20607 65.6203 7.59334 65.7706 7.91408C67.8403 12.5251 69.913 17.134 71.9853 21.7437C72.9868 23.9894 74.0088 26.2231 75 28.4749V28.5188C74.941 28.6457 74.8939 28.8451 74.7416 28.8273C73.735 28.8311 72.7268 28.8335 71.7207 28.8262C71.4792 28.8378 71.4141 28.5243 71.3228 28.3225C71.1397 27.909 70.9423 27.506 70.7771 27.0816C70.4946 26.5116 70.2721 25.9042 69.9895 25.3348C69.7725 24.7714 69.492 24.2488 69.2736 23.6865C69.1387 23.3462 68.9612 23.0328 68.8274 22.6921C68.629 22.1859 68.3721 21.717 68.1793 21.2073C67.8885 20.6085 67.6479 19.9786 67.3573 19.3797C67.1532 18.8431 66.8814 18.3487 66.6752 17.8133C66.5311 17.445 66.3383 17.1065 66.1952 16.7372C66.0086 16.2578 65.7604 15.8169 65.5825 15.3329C65.4937 15.1456 65.4326 14.8852 65.246 14.8103C65.126 14.7987 64.9578 14.7628 64.8901 14.9158C64.5764 15.5152 64.3466 16.1693 64.0441 16.7767C63.8276 17.3396 63.5451 17.862 63.3277 18.4243C63.1985 18.751 63.0287 19.0523 62.8984 19.3779C62.7995 19.6225 62.6989 19.8663 62.5821 20.0999C62.3753 20.5145 62.2277 20.9663 62.0185 21.3791C61.8359 21.7413 61.7062 22.137 61.5241 22.4993C61.3328 22.873 61.1995 23.2827 61.0114 23.6578C60.796 24.0846 60.6441 24.551 60.4282 24.9773C60.2462 25.3396 60.1171 25.7346 59.9344 26.0969C59.7431 26.4706 59.6098 26.8803 59.4217 27.2554C59.219 27.6571 59.0703 28.0925 58.8795 28.5011C58.8144 28.6224 58.7519 28.7748 58.6237 28.8101C58.4268 28.8516 58.2252 28.8272 58.0263 28.8303C57.2566 28.8297 56.4868 28.8267 55.7171 28.8334C55.5777 28.8303 55.4105 28.8328 55.3151 28.6901C55.2854 28.5346 55.296 28.3663 55.3673 28.2292C58.5072 21.2323 61.6536 14.2401 64.7964 7.24449C64.8447 7.13731 64.9313 7.06656 65.0149 7.00003L65.0147 7Z" fill="#004580"/>
<path d="M5.00014 10.3603C5.21551 10.0903 5.54213 10.1786 5.82057 10.1695C8.62407 10.1713 11.4269 10.1695 14.2306 10.1702C15.0551 10.1372 15.8899 10.2853 16.6638 10.6287C17.9663 11.1841 19.0872 12.4317 19.5088 14.0183C19.6954 14.6201 19.7359 15.2677 19.7734 15.9019C19.7391 16.5811 19.6698 17.2714 19.4539 17.9073C19.1949 18.6518 18.8211 19.3689 18.2637 19.8476C18.1294 20.0018 17.9211 20.0672 17.8232 20.261C18.5648 20.5793 19.2027 21.1823 19.6836 21.9183C20.4744 23.1475 20.6944 24.7744 20.56 26.2836C20.4893 27.2786 20.2487 28.2664 19.8119 29.1232C19.5201 29.6561 19.1602 30.1445 18.7233 30.5152C17.7694 31.3567 16.589 31.7445 15.4233 31.9042C15.1844 31.9428 14.9392 31.9219 14.7048 32H5.21387C5.13492 31.9244 5.06157 31.8403 5 31.7438V10.3603L5.00014 10.3603ZM8.14653 13.4865C8.05677 13.617 8.0814 13.7951 8.07634 13.9512C8.08441 15.5713 8.06403 17.192 8.08647 18.8116C8.17007 18.9355 8.29828 19.0203 8.43415 19.0117C10.2465 19.0134 12.0592 19.0092 13.8713 19.0141C14.1236 19.0269 14.3718 18.9642 14.6206 18.9227C15.1846 18.8251 15.7482 18.5598 16.1416 18.0538C16.4107 17.7355 16.5333 17.2939 16.624 16.8671C16.646 16.5215 16.7389 16.1744 16.6579 15.8293C16.6189 15.2452 16.4195 14.6776 16.0867 14.244C15.6205 13.7416 14.9964 13.5013 14.3811 13.4128C14.1842 13.3897 13.9842 13.4245 13.7888 13.3782C13.5458 13.3159 13.297 13.3458 13.0509 13.3422C11.5632 13.3403 10.0756 13.344 8.58858 13.3398C8.43369 13.3398 8.2788 13.3904 8.14649 13.4867L8.14653 13.4865ZM8.24747 22.2635C8.18699 22.2861 8.12911 22.3287 8.11064 22.4062C8.00131 22.6575 8.02389 22.9465 8.02499 23.2196C8.02704 24.8867 8.02348 26.5538 8.02649 28.2207C8.0295 28.4591 8.14129 28.797 8.38294 28.7677C10.2977 28.7688 12.213 28.7664 14.1276 28.7683C14.32 28.7761 14.5122 28.7683 14.702 28.7269C15.3757 28.6586 16.0732 28.4982 16.6409 28.0366C17.0972 27.6524 17.3481 27.0171 17.4455 26.3774C17.5746 25.639 17.5265 24.8664 17.346 24.1457C17.1844 23.5896 16.8654 23.083 16.4183 22.8134C15.8276 22.4268 15.1497 22.311 14.4876 22.2438C12.4698 22.2445 10.452 22.2445 8.43402 22.2438C8.37149 22.2421 8.30896 22.2487 8.24738 22.2634L8.24747 22.2635Z" fill="#004580"/>
<path d="M23.6866 10.1873C23.8999 10.1458 24.1179 10.1751 24.3333 10.1702C27.3075 10.1696 30.2822 10.172 33.2571 10.1689C34.6016 10.2507 35.9677 10.8098 36.939 11.9501C37.6774 12.8178 38.1225 14.0086 38.2291 15.2299C38.2271 15.7134 38.2461 16.1983 38.2179 16.6812C38.0903 17.7178 37.7476 18.7616 37.0913 19.4872C36.9057 19.7183 36.7042 19.933 36.4683 20.089C36.4196 20.1378 36.3164 20.1622 36.3468 20.2611C37.1015 20.6269 37.7831 21.2384 38.2523 22.0354C38.4538 22.3641 38.5988 22.7348 38.7384 23.105C39.0158 23.8494 39.0676 24.6732 39.1081 25.4758C39.0738 26.0964 39.0425 26.7226 38.9179 27.3299C38.7364 28.3885 38.2734 29.3695 37.6267 30.1244C37.3626 30.3837 37.0959 30.6434 36.7996 30.8495C35.9637 31.4579 34.9909 31.7392 34.0278 31.8903C33.7592 31.9446 33.4823 31.9153 33.2171 32H23.7324C23.5848 31.8976 23.4418 31.7361 23.4607 31.5134C23.4618 24.5615 23.4618 17.6092 23.4607 10.6574C23.4545 10.4653 23.551 10.2847 23.6868 10.1873L23.6866 10.1873ZM26.8642 13.3629C26.7657 13.3904 26.6585 13.433 26.6057 13.5445C26.5139 13.6989 26.54 13.8963 26.5365 14.0738C26.5411 15.558 26.538 17.0421 26.5374 18.5257C26.5288 18.7191 26.637 18.8862 26.761 18.9964C27.1297 19.035 27.5015 19.0008 27.8718 19.0117C29.4451 19.0106 31.0178 19.0142 32.5912 19.0106C33.1189 18.9398 33.665 18.858 34.128 18.5239C34.605 18.2691 34.9065 17.7172 35.0685 17.1458C35.1905 16.6837 35.1485 16.1953 35.1506 15.719C35.1157 15.3812 35.025 15.0489 34.8957 14.7452C34.526 13.9909 33.8138 13.5751 33.1071 13.4525C32.8292 13.3696 32.5404 13.4379 32.2614 13.3696C32.0481 13.3203 31.8307 13.3447 31.6159 13.3422C30.0939 13.3403 28.572 13.344 27.0502 13.3398C26.9872 13.3403 26.9252 13.3476 26.8642 13.3629L26.8642 13.3629ZM26.761 22.2647C26.6083 22.3042 26.5308 22.4958 26.5391 22.6688C26.538 24.4176 26.54 26.1658 26.538 27.914C26.54 28.1366 26.5195 28.3689 26.5923 28.5805C26.6288 28.73 26.7826 28.764 26.8965 28.7671C28.8451 28.7702 30.7941 28.7646 32.7434 28.7702C33.0009 28.7855 33.2527 28.7067 33.5091 28.6927C34.1659 28.5952 34.8403 28.3702 35.3469 27.8397C35.7464 27.361 35.9418 26.6909 35.9849 26.0288C36.0361 25.7007 36.048 25.3647 35.9911 25.0366C35.9413 24.2939 35.7229 23.5012 35.2048 23.0373C34.5783 22.4622 33.7659 22.3293 33.0009 22.2439C31.0522 22.2446 29.103 22.2446 27.1543 22.2439C27.0231 22.2476 26.8897 22.2311 26.761 22.2647L26.761 22.2647Z" fill="#004580"/>
<path d="M39.2196 10.6328C39.1268 10.4097 39.3104 10.1413 39.5099 10.1688C40.4678 10.1681 41.4262 10.1743 42.3846 10.1663C42.496 10.1597 42.619 10.1785 42.6785 10.3078C42.9056 10.7224 43.0893 11.1694 43.2718 11.6139C43.3872 11.898 43.5348 12.1615 43.6503 12.4457C43.8631 12.9938 44.1385 13.5029 44.3492 14.0523C44.6312 14.6224 44.8542 15.2297 45.1364 15.7993C45.3783 16.4151 45.6825 16.9921 45.9214 17.6096C46.1291 18.0415 46.3178 18.4847 46.5061 18.9292C46.745 19.3895 46.9122 19.8945 47.1481 20.3572C47.3127 20.6975 47.4347 21.064 47.6049 21.4005C47.8208 21.8268 47.972 22.2939 48.188 22.7194C48.4018 23.1464 48.547 23.6171 48.7772 24.0323C48.8803 24.2628 49.2177 24.2634 49.3213 24.0323C49.5505 23.6164 49.6961 23.1464 49.91 22.7194C50.1007 22.3463 50.2351 21.9371 50.4228 21.5615C50.6382 21.1347 50.7899 20.6682 51.0059 20.2414C51.2192 19.7981 51.3853 19.3243 51.6104 18.8884C51.873 18.234 52.1899 17.6141 52.4489 16.9579C52.6613 16.5292 52.8401 16.0798 53.034 15.6397C53.2607 15.2049 53.4175 14.7262 53.6396 14.289C53.8314 13.8975 53.972 13.475 54.1662 13.0853C54.3631 12.6986 54.5007 12.2749 54.698 11.8883C54.9616 11.3609 55.1319 10.767 55.4437 10.2737C55.5144 10.1438 55.6533 10.1731 55.7651 10.1657C56.7061 10.1762 57.6476 10.1677 58.5886 10.1688C58.7164 10.1518 58.8241 10.2531 58.8845 10.3793C58.9445 10.5896 58.8159 10.781 58.7347 10.9543C55.7427 17.6018 52.7592 24.2547 49.7681 30.903C49.5968 31.2828 49.4522 31.6956 49.1872 31.9999H48.9615C48.6215 31.7468 48.5071 31.2535 48.3128 30.8622C45.2807 24.1202 42.255 17.3724 39.2198 10.6328L39.2196 10.6328Z" fill="#004580"/>
</svg>
