<svg width="39" height="27" viewBox="0 0 39 27" fill="none" xmlns="http://www.w3.org/2000/svg">
<path d="M25.7357 20.5717L0 15.8913V4.68049L25.7357 -2.13828e-07V20.5717Z" transform="translate(4.50336 1)" stroke="#325B8E" stroke-width="2" stroke-linecap="round" stroke-linejoin="round"/>
<path d="M0 0V17.692C0.00122624 18.4987 0.291809 19.2783 0.818956 19.889C1.3461 20.4997 2.07484 20.9011 2.87276 21.0202H4.55437" transform="translate(8.7074 4.9798)" stroke="#325B8E" stroke-width="2" stroke-linecap="round" stroke-linejoin="round"/>
<path d="M3.50336 0V8.40807C2.57421 8.40807 1.68312 8.03897 1.02611 7.38196C0.369103 6.72495 0 5.83386 0 4.90471V3.50336C0 2.57421 0.369103 1.68312 1.02611 1.02611C1.68312 0.369103 2.57421 0 3.50336 0V0Z" transform="translate(1 7.08185)" stroke="#325B8E" stroke-width="2" stroke-linecap="round" stroke-linejoin="round"/>
<path d="M0 0H2.80269" transform="translate(34.6323 11.2859)" stroke="#325B8E" stroke-width="2" stroke-linecap="round" stroke-linejoin="round"/>
<path d="M-9.62227e-07 1.75168L2.1861 0" transform="translate(34.2399 6.20599)" stroke="#325B8E" stroke-width="2" stroke-linecap="round" stroke-linejoin="round"/>
<path d="M2.1861 1.75168L-9.62227e-07 0" transform="translate(34.2399 14.6141)" stroke="#325B8E" stroke-width="2" stroke-linecap="round" stroke-linejoin="round"/>
</svg>
