<svg width="23" height="27" viewBox="0 0 23 27" fill="none" xmlns="http://www.w3.org/2000/svg">
<path d="M12.3399 -3.81928e-08L9.05095 6.85322L6.39777 2.08751C6.39777 2.08751 8.85105e-05 8.15479 8.85105e-05 15.1031C-0.00966419 17.4292 0.78717 19.6867 2.2549 21.4912C3.72262 23.2958 5.77049 24.5357 8.04975 25C7.3574 24.0008 6.9633 22.8255 6.91338 21.6109C6.91338 18.7225 10.0522 16.3797 10.0522 16.3797C10.0522 16.3797 13.1909 18.7225 13.1909 21.6109C13.141 22.8255 12.7469 24.0008 12.0546 25C14.3188 24.5292 16.3517 23.2923 17.8106 21.4979C19.2695 19.7034 20.0654 17.4609 20.0642 15.1482C20.1092 6.84321 12.3399 -3.81928e-08 12.3399 -3.81928e-08Z" transform="translate(1 1)" stroke="#325B8E" stroke-width="2" stroke-linecap="round" stroke-linejoin="round"/>
</svg>
