<svg width="27" height="27" viewBox="0 0 27 27" fill="none" xmlns="http://www.w3.org/2000/svg">
<path d="M12.5 25C19.4036 25 25 19.4036 25 12.5C25 5.59644 19.4036 0 12.5 0C5.59644 0 0 5.59644 0 12.5C0 19.4036 5.59644 25 12.5 25Z" transform="translate(1 1)" stroke="#325B8E" stroke-width="2" stroke-linecap="round" stroke-linejoin="round"/>
<path d="M1.04167 2.08333C1.61696 2.08333 2.08333 1.61696 2.08333 1.04167C2.08333 0.46637 1.61696 0 1.04167 0C0.46637 0 0 0.46637 0 1.04167C0 1.61696 0.46637 2.08333 1.04167 2.08333Z" transform="translate(12.4583 7.25)" fill="#325B8E"/>
<path d="M2.08333 7.8125V0H0" transform="translate(11.4167 11.4166)" stroke="#325B8E" stroke-width="2" stroke-linecap="round" stroke-linejoin="round"/>
</svg>
