<svg width="21" height="20" viewBox="0 0 21 20" fill="none" xmlns="http://www.w3.org/2000/svg">
<path d="M11.4028 2.24079L13.3578 6.25142L17.6703 6.88392C17.9212 6.93355 18.1542 7.04918 18.3454 7.21889C18.5367 7.3886 18.6792 7.60625 18.7583 7.84939C18.8374 8.09253 18.8502 8.35237 18.7954 8.60211C18.7406 8.85186 18.6202 9.08247 18.4466 9.27017L15.3416 12.2889L16.0891 16.6014C16.1131 16.8538 16.0699 17.108 15.9639 17.3383C15.8579 17.5685 15.693 17.7667 15.4857 17.9127C15.2785 18.0586 15.0363 18.1472 14.7838 18.1693C14.5312 18.1915 14.2774 18.1465 14.0478 18.0389L10.181 16.0552L6.27096 18.1108C6.04203 18.2149 5.78979 18.2572 5.53942 18.2333C5.28906 18.2095 5.04934 18.1203 4.84419 17.9748C4.63905 17.8293 4.47567 17.6326 4.37036 17.4042C4.26506 17.1758 4.22152 16.9238 4.24409 16.6733L4.99158 12.3608L1.84346 9.28454C1.66993 9.09781 1.54918 8.86828 1.49359 8.6195C1.43799 8.37072 1.44955 8.11162 1.52709 7.86878C1.60462 7.62594 1.74534 7.40808 1.93481 7.23755C2.12428 7.06701 2.3557 6.94992 2.60533 6.89829L6.91783 6.26579L8.87284 2.31267C8.98939 2.08081 9.16653 1.88482 9.38547 1.7455C9.60441 1.60618 9.85698 1.52873 10.1164 1.52136C10.3758 1.51399 10.6323 1.57698 10.8588 1.70364C11.0853 1.83031 11.2733 2.01592 11.4028 2.24079Z" fill="#00B2BC"/>
<path d="M5.59533 19.7064C4.99929 19.711 4.41658 19.5301 3.92783 19.1889C3.50427 18.874 3.17558 18.4485 2.9778 17.9591C2.78003 17.4697 2.72079 16.9354 2.80658 16.4146L3.4247 12.8208L0.808455 10.2621C0.445657 9.88695 0.191796 9.42017 0.0740899 8.91177C-0.0436166 8.40338 -0.020729 7.87253 0.140299 7.37615C0.301328 6.87977 0.594422 6.43657 0.988159 6.09409C1.3819 5.75161 1.86142 5.52275 2.37533 5.43205L5.99783 4.81393L7.60783 1.53643C7.85172 1.07283 8.21764 0.684681 8.66606 0.4139C9.11449 0.14312 9.62837 1.87137e-07 10.1522 1.87137e-07C10.676 1.87137e-07 11.1899 0.14312 11.6383 0.4139C12.0868 0.684681 12.4527 1.07283 12.6966 1.53643L14.3066 4.81393L17.9291 5.3458C18.462 5.42628 18.9616 5.65495 19.3708 6.00571C19.78 6.35647 20.0824 6.8152 20.2435 7.32955C20.396 7.82886 20.4097 8.36029 20.283 8.86679C20.1564 9.3733 19.8943 9.83576 19.5247 10.2046L16.9085 12.7633L17.5266 16.3571C17.6205 16.8895 17.5625 17.4376 17.3591 17.9385C17.1557 18.4394 16.8151 18.8728 16.3766 19.1889C15.9462 19.4964 15.4394 19.6792 14.9119 19.7173C14.3844 19.7553 13.8566 19.6471 13.3866 19.4046L10.181 17.7514L6.94658 19.4477C6.52374 19.642 6.06005 19.7308 5.59533 19.7064ZM10.181 2.8733L7.9672 7.50205L2.86408 8.24955L6.5872 11.7858L5.71033 16.8745L10.181 14.4308L14.7522 16.8314L13.8178 11.7858L17.5266 8.17768L12.4235 7.50205L10.181 2.8733Z" fill="#325B8E"/>
</svg>
