<svg width="39" height="32" viewBox="0 0 39 32" fill="none" xmlns="http://www.w3.org/2000/svg">
<path d="M0 0H22.1053" transform="translate(15.2106 4.94737)" stroke="white" stroke-width="2" stroke-linecap="round" stroke-linejoin="round"/>
<path d="M0 0H6.31579" transform="translate(1 4.94737)" stroke="white" stroke-width="2" stroke-linecap="round" stroke-linejoin="round"/>
<path d="M0 0H7.89474" transform="translate(29.421 16)" stroke="white" stroke-width="2" stroke-linecap="round" stroke-linejoin="round"/>
<path d="M0 0H20.5263" transform="translate(1 16)" stroke="white" stroke-width="2" stroke-linecap="round" stroke-linejoin="round"/>
<path d="M0 0H20.5263" transform="translate(16.7894 27.0526)" stroke="white" stroke-width="2" stroke-linecap="round" stroke-linejoin="round"/>
<path d="M0 0H7.89474" transform="translate(1 27.0526)" stroke="white" stroke-width="2" stroke-linecap="round" stroke-linejoin="round"/>
<path d="M3.94737 7.89474C6.12744 7.89474 7.89474 6.12744 7.89474 3.94737C7.89474 1.7673 6.12744 0 3.94737 0C1.7673 0 0 1.7673 0 3.94737C0 6.12744 1.7673 7.89474 3.94737 7.89474Z" transform="translate(7.3158 1)" stroke="white" stroke-width="2" stroke-linecap="round" stroke-linejoin="round"/>
<path d="M3.94737 7.89474C6.12744 7.89474 7.89474 6.12744 7.89474 3.94737C7.89474 1.7673 6.12744 0 3.94737 0C1.7673 0 0 1.7673 0 3.94737C0 6.12744 1.7673 7.89474 3.94737 7.89474Z" transform="translate(21.5264 12.0526)" stroke="white" stroke-width="2" stroke-linecap="round" stroke-linejoin="round"/>
<path d="M3.94737 7.89474C6.12744 7.89474 7.89474 6.12744 7.89474 3.94737C7.89474 1.7673 6.12744 0 3.94737 0C1.7673 0 0 1.7673 0 3.94737C0 6.12744 1.7673 7.89474 3.94737 7.89474Z" transform="translate(8.89478 23.1053)" stroke="white" stroke-width="2" stroke-linecap="round" stroke-linejoin="round"/>
</svg>
