<svg width="27" height="27" viewBox="0 0 27 27" fill="none" xmlns="http://www.w3.org/2000/svg">
<path d="M6.5625 3.14534C6.5625 4.95784 5.09375 8.12451 3.28125 8.12451C1.46875 8.12451 3.97364e-07 4.96305 3.97364e-07 3.15055C0.0337634 2.30361 0.393959 1.50259 1.00513 0.915297C1.6163 0.328002 2.43103 -3.28659e-07 3.27865 -3.28659e-07C4.12626 -3.28659e-07 4.94099 0.328002 5.55216 0.915297C6.16333 1.50259 6.52353 2.30361 6.55729 3.15055L6.5625 3.14534Z" transform="translate(10.2188 6.41718)" stroke="#325B8E" stroke-width="2" stroke-linecap="round" stroke-linejoin="round"/>
<path d="M0 6.77083C0 4.9751 0.713353 3.25291 1.98313 1.98313C3.25291 0.713353 4.9751 3.97364e-07 6.77083 3.97364e-07C8.56657 3.97364e-07 10.2888 0.713353 11.5585 1.98313C12.8283 3.25291 13.5417 4.9751 13.5417 6.77083" transform="translate(6.72917 16.9896)" stroke="#325B8E" stroke-width="2" stroke-linecap="round" stroke-linejoin="round"/>
<path d="M12.5 25C19.4036 25 25 19.4036 25 12.5C25 5.59644 19.4036 0 12.5 0C5.59644 0 0 5.59644 0 12.5C0 19.4036 5.59644 25 12.5 25Z" transform="translate(1 1)" stroke="#325B8E" stroke-width="2" stroke-linecap="round" stroke-linejoin="round"/>
</svg>
